<svg xmlns="http://www.w3.org/2000/svg" xmlns:xlink="http://www.w3.org/1999/xlink" width="500" zoomAndPan="magnify" viewBox="0 0 375 374.999991" height="500" preserveAspectRatio="xMidYMid meet" version="1.0"><defs><g/></defs><g fill="#000000" fill-opacity="1"><g transform="translate(91.092186, 207.049995)"><g><path d="M 21.25 -31.34375 C 21.25 -30.582031 20.953125 -29.882812 20.359375 -29.25 C 19.765625 -28.625 19.046875 -28.070312 18.203125 -27.59375 C 17.359375 -27.125 16.492188 -26.738281 15.609375 -26.4375 C 14.722656 -26.132812 13.988281 -25.921875 13.40625 -25.796875 C 13.15625 -23.441406 12.960938 -21.09375 12.828125 -18.75 C 12.691406 -16.40625 12.625 -14.054688 12.625 -11.703125 C 12.625 -10.453125 12.65625 -9.210938 12.71875 -7.984375 C 12.78125 -6.765625 12.8125 -5.539062 12.8125 -4.3125 C 12.8125 -3.757812 12.753906 -3.15625 12.640625 -2.5 C 12.535156 -1.84375 12.351562 -1.222656 12.09375 -0.640625 C 11.832031 -0.0546875 11.472656 0.429688 11.015625 0.828125 C 10.554688 1.222656 9.988281 1.421875 9.3125 1.421875 C 8.519531 1.421875 7.882812 1.195312 7.40625 0.75 C 6.9375 0.3125 6.570312 -0.226562 6.3125 -0.875 C 6.050781 -1.519531 5.875 -2.203125 5.78125 -2.921875 C 5.6875 -3.640625 5.640625 -4.285156 5.640625 -4.859375 C 5.578125 -6.703125 5.53125 -8.546875 5.5 -10.390625 C 5.476562 -12.242188 5.46875 -14.101562 5.46875 -15.96875 C 5.46875 -17.53125 5.472656 -19.0625 5.484375 -20.5625 C 5.503906 -22.0625 5.515625 -23.59375 5.515625 -25.15625 C 5.078125 -25.09375 4.632812 -25.046875 4.1875 -25.015625 C 3.75 -24.984375 3.300781 -24.96875 2.84375 -24.96875 C 2.476562 -24.96875 1.992188 -25.003906 1.390625 -25.078125 C 0.796875 -25.160156 0.226562 -25.300781 -0.3125 -25.5 C -0.863281 -25.695312 -1.335938 -25.96875 -1.734375 -26.3125 C -2.140625 -26.664062 -2.34375 -27.117188 -2.34375 -27.671875 C -2.34375 -28.585938 -1.984375 -29.390625 -1.265625 -30.078125 C -0.546875 -30.773438 0.367188 -31.375 1.484375 -31.875 C 2.609375 -32.382812 3.847656 -32.8125 5.203125 -33.15625 C 6.566406 -33.507812 7.914062 -33.785156 9.25 -33.984375 C 10.582031 -34.179688 11.804688 -34.328125 12.921875 -34.421875 C 14.035156 -34.515625 14.898438 -34.5625 15.515625 -34.5625 C 16.097656 -34.5625 16.71875 -34.535156 17.375 -34.484375 C 18.03125 -34.441406 18.648438 -34.3125 19.234375 -34.09375 C 19.816406 -33.882812 20.296875 -33.566406 20.671875 -33.140625 C 21.054688 -32.710938 21.25 -32.113281 21.25 -31.34375 Z M 21.25 -31.34375 "/></g></g></g><g fill="#000000" fill-opacity="1"><g transform="translate(108.576583, 207.049995)"><g><path d="M 20.890625 -6.46875 C 20.890625 -5.914062 20.863281 -5.195312 20.8125 -4.3125 C 20.769531 -3.425781 20.640625 -2.5625 20.421875 -1.71875 C 20.210938 -0.875 19.878906 -0.148438 19.421875 0.453125 C 18.960938 1.066406 18.316406 1.375 17.484375 1.375 C 16.359375 1.375 15.488281 1.003906 14.875 0.265625 C 14.257812 -0.460938 13.96875 -1.378906 14 -2.484375 C 13.019531 -1.617188 11.910156 -0.941406 10.671875 -0.453125 C 9.429688 0.0351562 8.171875 0.28125 6.890625 0.28125 C 5.992188 0.28125 5.148438 0.0664062 4.359375 -0.359375 C 3.566406 -0.796875 2.863281 -1.347656 2.25 -2.015625 C 1.632812 -2.691406 1.144531 -3.445312 0.78125 -4.28125 C 0.414062 -5.125 0.234375 -5.960938 0.234375 -6.796875 C 0.234375 -8.265625 0.679688 -9.546875 1.578125 -10.640625 C 2.484375 -11.742188 3.59375 -12.6875 4.90625 -13.46875 C 6.226562 -14.25 7.628906 -14.867188 9.109375 -15.328125 C 10.597656 -15.785156 11.921875 -16.09375 13.078125 -16.25 C 13.078125 -16.40625 13.082031 -16.539062 13.09375 -16.65625 C 13.113281 -16.78125 13.125 -16.921875 13.125 -17.078125 C 13.125 -18.023438 12.863281 -18.785156 12.34375 -19.359375 C 11.820312 -19.941406 11.085938 -20.234375 10.140625 -20.234375 C 9.378906 -20.234375 8.722656 -20.101562 8.171875 -19.84375 C 7.617188 -19.59375 7.097656 -19.304688 6.609375 -18.984375 C 6.117188 -18.660156 5.628906 -18.367188 5.140625 -18.109375 C 4.648438 -17.847656 4.097656 -17.71875 3.484375 -17.71875 C 2.816406 -17.71875 2.242188 -17.929688 1.765625 -18.359375 C 1.296875 -18.785156 1.0625 -19.335938 1.0625 -20.015625 C 1.0625 -21.023438 1.359375 -21.941406 1.953125 -22.765625 C 2.546875 -23.585938 3.289062 -24.28125 4.1875 -24.84375 C 5.09375 -25.414062 6.070312 -25.863281 7.125 -26.1875 C 8.1875 -26.507812 9.160156 -26.671875 10.046875 -26.671875 C 10.878906 -26.671875 11.707031 -26.570312 12.53125 -26.375 C 13.351562 -26.175781 14.128906 -25.867188 14.859375 -25.453125 C 15.597656 -25.035156 16.265625 -24.53125 16.859375 -23.9375 C 17.460938 -23.34375 17.945312 -22.644531 18.3125 -21.84375 C 18.863281 -20.71875 19.304688 -19.519531 19.640625 -18.25 C 19.984375 -16.976562 20.242188 -15.675781 20.421875 -14.34375 C 20.609375 -13.007812 20.734375 -11.675781 20.796875 -10.34375 C 20.859375 -9.019531 20.890625 -7.726562 20.890625 -6.46875 Z M 13.546875 -7.9375 L 13.40625 -11.0625 C 13.34375 -11.0625 13.28125 -11.066406 13.21875 -11.078125 C 13.15625 -11.097656 13.09375 -11.109375 13.03125 -11.109375 C 12.632812 -11.109375 12.140625 -11.007812 11.546875 -10.8125 C 10.953125 -10.613281 10.378906 -10.335938 9.828125 -9.984375 C 9.273438 -9.628906 8.804688 -9.238281 8.421875 -8.8125 C 8.035156 -8.382812 7.84375 -7.941406 7.84375 -7.484375 C 7.84375 -7.054688 7.992188 -6.765625 8.296875 -6.609375 C 8.609375 -6.453125 8.960938 -6.375 9.359375 -6.375 C 10.035156 -6.375 10.753906 -6.550781 11.515625 -6.90625 C 12.285156 -7.257812 12.960938 -7.601562 13.546875 -7.9375 Z M 13.546875 -7.9375 "/></g></g></g><g fill="#000000" fill-opacity="1"><g transform="translate(130.833623, 207.049995)"><g><path d="M 14.828125 -25.25 C 14.828125 -24.351562 14.523438 -23.691406 13.921875 -23.265625 C 13.328125 -22.835938 12.660156 -22.429688 11.921875 -22.046875 C 11.191406 -21.671875 10.53125 -21.222656 9.9375 -20.703125 C 9.34375 -20.179688 9.046875 -19.398438 9.046875 -18.359375 C 9.046875 -17.804688 9.175781 -17.332031 9.4375 -16.9375 C 9.695312 -16.539062 10.015625 -16.179688 10.390625 -15.859375 C 10.773438 -15.535156 11.195312 -15.203125 11.65625 -14.859375 C 12.113281 -14.523438 12.535156 -14.144531 12.921875 -13.71875 C 13.304688 -13.289062 13.628906 -12.769531 13.890625 -12.15625 C 14.148438 -11.550781 14.28125 -10.804688 14.28125 -9.921875 C 14.28125 -8.628906 13.945312 -7.363281 13.28125 -6.125 C 12.625 -4.882812 11.78125 -3.78125 10.75 -2.8125 C 9.726562 -1.851562 8.578125 -1.082031 7.296875 -0.5 C 6.015625 0.0820312 4.742188 0.375 3.484375 0.375 C 2.960938 0.375 2.441406 0.332031 1.921875 0.25 C 1.398438 0.175781 0.929688 0.0351562 0.515625 -0.171875 C 0.109375 -0.390625 -0.226562 -0.691406 -0.5 -1.078125 C -0.78125 -1.460938 -0.921875 -1.960938 -0.921875 -2.578125 C -0.921875 -3.429688 -0.75 -4.09375 -0.40625 -4.5625 C -0.0703125 -5.039062 0.351562 -5.414062 0.875 -5.6875 C 1.394531 -5.96875 1.953125 -6.179688 2.546875 -6.328125 C 3.140625 -6.484375 3.695312 -6.675781 4.21875 -6.90625 C 4.738281 -7.132812 5.164062 -7.429688 5.5 -7.796875 C 5.84375 -8.171875 6.015625 -8.691406 6.015625 -9.359375 C 6.015625 -10.003906 5.757812 -10.671875 5.25 -11.359375 C 4.75 -12.046875 4.191406 -12.78125 3.578125 -13.5625 C 2.960938 -14.34375 2.398438 -15.175781 1.890625 -16.0625 C 1.390625 -16.945312 1.140625 -17.925781 1.140625 -19 C 1.140625 -20.3125 1.40625 -21.523438 1.9375 -22.640625 C 2.476562 -23.765625 3.203125 -24.738281 4.109375 -25.5625 C 5.015625 -26.394531 6.046875 -27.046875 7.203125 -27.515625 C 8.367188 -27.992188 9.59375 -28.234375 10.875 -28.234375 C 11.363281 -28.234375 11.84375 -28.1875 12.3125 -28.09375 C 12.789062 -28 13.210938 -27.835938 13.578125 -27.609375 C 13.953125 -27.378906 14.253906 -27.070312 14.484375 -26.6875 C 14.710938 -26.300781 14.828125 -25.820312 14.828125 -25.25 Z M 14.828125 -25.25 "/></g></g></g><g fill="#000000" fill-opacity="1"><g transform="translate(146.115262, 207.049995)"><g><path d="M 21.75 -24.6875 C 21.75 -23.832031 21.523438 -22.960938 21.078125 -22.078125 C 20.640625 -21.191406 20.109375 -20.3125 19.484375 -19.4375 C 18.859375 -18.5625 18.203125 -17.734375 17.515625 -16.953125 C 16.828125 -16.179688 16.222656 -15.472656 15.703125 -14.828125 C 16.128906 -14.148438 16.660156 -13.253906 17.296875 -12.140625 C 17.941406 -11.023438 18.554688 -9.835938 19.140625 -8.578125 C 19.722656 -7.328125 20.21875 -6.101562 20.625 -4.90625 C 21.039062 -3.71875 21.25 -2.722656 21.25 -1.921875 C 21.25 -1.285156 21.050781 -0.695312 20.65625 -0.15625 C 20.257812 0.375 19.707031 0.640625 19 0.640625 C 18.476562 0.640625 17.945312 0.421875 17.40625 -0.015625 C 16.875 -0.460938 16.34375 -1.046875 15.8125 -1.765625 C 15.28125 -2.484375 14.769531 -3.285156 14.28125 -4.171875 C 13.789062 -5.066406 13.335938 -5.941406 12.921875 -6.796875 C 12.503906 -7.648438 12.132812 -8.453125 11.8125 -9.203125 C 11.5 -9.953125 11.25 -10.554688 11.0625 -11.015625 C 10.664062 -10.617188 10.242188 -10.289062 9.796875 -10.03125 C 9.359375 -9.769531 8.921875 -9.472656 8.484375 -9.140625 C 8.484375 -8.492188 8.460938 -7.585938 8.421875 -6.421875 C 8.378906 -5.265625 8.242188 -4.117188 8.015625 -2.984375 C 7.785156 -1.847656 7.410156 -0.859375 6.890625 -0.015625 C 6.367188 0.816406 5.601562 1.234375 4.59375 1.234375 C 3.789062 1.234375 3.175781 0.875 2.75 0.15625 C 2.320312 -0.5625 2.007812 -1.398438 1.8125 -2.359375 C 1.613281 -3.328125 1.5 -4.304688 1.46875 -5.296875 C 1.4375 -6.296875 1.421875 -7.054688 1.421875 -7.578125 C 1.421875 -9.835938 1.484375 -12.097656 1.609375 -14.359375 C 1.734375 -16.628906 1.8125 -18.894531 1.84375 -21.15625 C 1.84375 -21.675781 1.847656 -22.359375 1.859375 -23.203125 C 1.867188 -24.046875 1.921875 -24.957031 2.015625 -25.9375 C 2.109375 -26.914062 2.242188 -27.910156 2.421875 -28.921875 C 2.609375 -29.929688 2.867188 -30.835938 3.203125 -31.640625 C 3.546875 -32.453125 3.984375 -33.109375 4.515625 -33.609375 C 5.054688 -34.117188 5.707031 -34.375 6.46875 -34.375 C 7.019531 -34.375 7.488281 -34.164062 7.875 -33.75 C 8.257812 -33.34375 8.566406 -32.816406 8.796875 -32.171875 C 9.023438 -31.535156 9.191406 -30.816406 9.296875 -30.015625 C 9.398438 -29.222656 9.472656 -28.4375 9.515625 -27.65625 C 9.566406 -26.875 9.59375 -26.144531 9.59375 -25.46875 C 9.59375 -24.800781 9.59375 -24.269531 9.59375 -23.875 C 9.59375 -23.59375 9.582031 -23.179688 9.5625 -22.640625 C 9.550781 -22.109375 9.535156 -21.550781 9.515625 -20.96875 C 9.503906 -20.394531 9.5 -19.863281 9.5 -19.375 C 9.5 -18.882812 9.53125 -18.53125 9.59375 -18.3125 C 9.8125 -18.3125 10.132812 -18.515625 10.5625 -18.921875 C 10.988281 -19.335938 11.484375 -19.867188 12.046875 -20.515625 C 12.609375 -21.160156 13.21875 -21.84375 13.875 -22.5625 C 14.539062 -23.28125 15.21875 -23.957031 15.90625 -24.59375 C 16.59375 -25.238281 17.269531 -25.769531 17.9375 -26.1875 C 18.613281 -26.601562 19.242188 -26.8125 19.828125 -26.8125 C 20.441406 -26.8125 20.914062 -26.59375 21.25 -26.15625 C 21.582031 -25.726562 21.75 -25.238281 21.75 -24.6875 Z M 21.75 -24.6875 "/></g></g></g><g fill="#000000" fill-opacity="1"><g transform="translate(168.096957, 207.049995)"><g><path d="M 20.109375 -33.140625 C 20.109375 -31.972656 19.707031 -30.914062 18.90625 -29.96875 C 18.113281 -29.019531 17.144531 -28.171875 16 -27.421875 C 14.851562 -26.671875 13.648438 -26.019531 12.390625 -25.46875 C 11.140625 -24.914062 10.054688 -24.457031 9.140625 -24.09375 C 9.140625 -23.457031 9.125 -22.800781 9.09375 -22.125 C 9.0625 -21.445312 9.015625 -20.773438 8.953125 -20.109375 C 9.929688 -20.597656 11.03125 -21.054688 12.25 -21.484375 C 13.476562 -21.910156 14.644531 -22.125 15.75 -22.125 C 16.632812 -22.125 17.359375 -21.9375 17.921875 -21.5625 C 18.484375 -21.195312 18.765625 -20.554688 18.765625 -19.640625 C 18.765625 -18.628906 18.40625 -17.726562 17.6875 -16.9375 C 16.96875 -16.144531 16.101562 -15.441406 15.09375 -14.828125 C 14.09375 -14.210938 13.039062 -13.691406 11.9375 -13.265625 C 10.832031 -12.835938 9.898438 -12.5 9.140625 -12.25 C 9.140625 -11.238281 9.125 -10.234375 9.09375 -9.234375 C 9.0625 -8.242188 9.015625 -7.257812 8.953125 -6.28125 C 8.921875 -5.789062 8.863281 -5.175781 8.78125 -4.4375 C 8.707031 -3.707031 8.554688 -3 8.328125 -2.3125 C 8.097656 -1.625 7.769531 -1.023438 7.34375 -0.515625 C 6.914062 -0.015625 6.363281 0.234375 5.6875 0.234375 C 5.050781 0.234375 4.5 -0.078125 4.03125 -0.703125 C 3.570312 -1.335938 3.179688 -2.144531 2.859375 -3.125 C 2.546875 -4.101562 2.289062 -5.195312 2.09375 -6.40625 C 1.894531 -7.613281 1.738281 -8.796875 1.625 -9.953125 C 1.519531 -11.117188 1.457031 -12.191406 1.4375 -13.171875 C 1.425781 -14.148438 1.421875 -14.898438 1.421875 -15.421875 C 1.421875 -15.816406 1.425781 -16.40625 1.4375 -17.1875 C 1.457031 -17.96875 1.472656 -18.832031 1.484375 -19.78125 C 1.503906 -20.726562 1.535156 -21.722656 1.578125 -22.765625 C 1.628906 -23.804688 1.6875 -24.789062 1.75 -25.71875 C 1.8125 -26.65625 1.894531 -27.484375 2 -28.203125 C 2.101562 -28.921875 2.234375 -29.445312 2.390625 -29.78125 C 2.722656 -30.457031 3.523438 -31.125 4.796875 -31.78125 C 6.066406 -32.4375 7.484375 -33.015625 9.046875 -33.515625 C 10.609375 -34.023438 12.128906 -34.441406 13.609375 -34.765625 C 15.085938 -35.085938 16.226562 -35.25 17.03125 -35.25 C 17.394531 -35.25 17.753906 -35.222656 18.109375 -35.171875 C 18.460938 -35.128906 18.789062 -35.03125 19.09375 -34.875 C 19.394531 -34.726562 19.640625 -34.515625 19.828125 -34.234375 C 20.015625 -33.960938 20.109375 -33.597656 20.109375 -33.140625 Z M 20.109375 -33.140625 "/></g></g></g><g fill="#000000" fill-opacity="1"><g transform="translate(187.049859, 207.049995)"><g><path d="M 8.953125 -32.03125 C 8.953125 -31.601562 8.835938 -31.222656 8.609375 -30.890625 C 8.378906 -30.554688 8.078125 -30.257812 7.703125 -30 C 7.335938 -29.738281 6.941406 -29.535156 6.515625 -29.390625 C 6.085938 -29.253906 5.691406 -29.1875 5.328125 -29.1875 C 4.710938 -29.1875 4.175781 -29.335938 3.71875 -29.640625 C 3.257812 -29.953125 3.03125 -30.429688 3.03125 -31.078125 C 3.03125 -31.535156 3.144531 -31.9375 3.375 -32.28125 C 3.601562 -32.632812 3.882812 -32.925781 4.21875 -33.15625 C 4.5625 -33.382812 4.945312 -33.5625 5.375 -33.6875 C 5.800781 -33.8125 6.210938 -33.875 6.609375 -33.875 C 7.191406 -33.875 7.726562 -33.734375 8.21875 -33.453125 C 8.707031 -33.179688 8.953125 -32.707031 8.953125 -32.03125 Z M 9.3125 -16.4375 C 9.3125 -16.007812 9.3125 -15.554688 9.3125 -15.078125 C 9.3125 -14.597656 9.296875 -14.144531 9.265625 -13.71875 C 9.234375 -13.195312 9.21875 -12.5 9.21875 -11.625 C 9.21875 -10.757812 9.1875 -9.820312 9.125 -8.8125 C 9.070312 -7.800781 8.972656 -6.773438 8.828125 -5.734375 C 8.691406 -4.691406 8.472656 -3.742188 8.171875 -2.890625 C 7.867188 -2.035156 7.460938 -1.335938 6.953125 -0.796875 C 6.453125 -0.265625 5.816406 0.015625 5.046875 0.046875 C 4.460938 0.078125 3.972656 -0.148438 3.578125 -0.640625 C 3.179688 -1.128906 2.851562 -1.765625 2.59375 -2.546875 C 2.332031 -3.328125 2.140625 -4.195312 2.015625 -5.15625 C 1.898438 -6.125 1.8125 -7.054688 1.75 -7.953125 C 1.6875 -8.859375 1.65625 -9.691406 1.65625 -10.453125 C 1.65625 -11.222656 1.65625 -11.789062 1.65625 -12.15625 C 1.65625 -12.644531 1.65625 -13.34375 1.65625 -14.25 C 1.65625 -15.15625 1.6875 -16.128906 1.75 -17.171875 C 1.8125 -18.210938 1.925781 -19.265625 2.09375 -20.328125 C 2.257812 -21.398438 2.503906 -22.378906 2.828125 -23.265625 C 3.148438 -24.160156 3.566406 -24.878906 4.078125 -25.421875 C 4.597656 -25.972656 5.257812 -26.25 6.0625 -26.25 C 6.882812 -26.25 7.507812 -25.835938 7.9375 -25.015625 C 8.363281 -24.191406 8.679688 -23.226562 8.890625 -22.125 C 9.109375 -21.019531 9.234375 -19.925781 9.265625 -18.84375 C 9.296875 -17.757812 9.3125 -16.957031 9.3125 -16.4375 Z M 9.3125 -16.4375 "/></g></g></g><g fill="#000000" fill-opacity="1"><g transform="translate(198.247216, 207.049995)"><g><path d="M 14.40625 1.28125 C 13.882812 1.28125 13.472656 1.039062 13.171875 0.5625 C 12.867188 0.09375 12.640625 -0.441406 12.484375 -1.046875 C 12.328125 -1.660156 12.226562 -2.28125 12.1875 -2.90625 C 12.144531 -3.539062 12.125 -4.023438 12.125 -4.359375 C 12.125 -5.273438 12.175781 -6.191406 12.28125 -7.109375 C 12.382812 -8.023438 12.503906 -8.941406 12.640625 -9.859375 C 12.785156 -10.785156 12.910156 -11.707031 13.015625 -12.625 C 13.117188 -13.539062 13.171875 -14.457031 13.171875 -15.375 C 13.171875 -15.738281 13.15625 -16.132812 13.125 -16.5625 C 13.09375 -17 13.023438 -17.40625 12.921875 -17.78125 C 12.816406 -18.164062 12.640625 -18.476562 12.390625 -18.71875 C 12.148438 -18.96875 11.828125 -19.09375 11.421875 -19.09375 C 11.148438 -19.09375 10.84375 -18.867188 10.5 -18.421875 C 10.164062 -17.984375 9.851562 -17.476562 9.5625 -16.90625 C 9.28125 -16.34375 9.035156 -15.773438 8.828125 -15.203125 C 8.628906 -14.640625 8.53125 -14.222656 8.53125 -13.953125 C 8.53125 -13.273438 8.535156 -12.59375 8.546875 -11.90625 C 8.566406 -11.21875 8.578125 -10.523438 8.578125 -9.828125 L 8.578125 -7.15625 C 8.546875 -6.601562 8.5 -6.035156 8.4375 -5.453125 C 8.382812 -4.878906 8.296875 -4.316406 8.171875 -3.765625 C 8.078125 -3.210938 7.9375 -2.679688 7.75 -2.171875 C 7.570312 -1.671875 7.335938 -1.226562 7.046875 -0.84375 C 6.753906 -0.46875 6.410156 -0.160156 6.015625 0.078125 C 5.617188 0.328125 5.144531 0.453125 4.59375 0.453125 C 3.976562 0.453125 3.472656 0.253906 3.078125 -0.140625 C 2.679688 -0.535156 2.359375 -1.046875 2.109375 -1.671875 C 1.867188 -2.296875 1.691406 -3 1.578125 -3.78125 C 1.472656 -4.5625 1.394531 -5.328125 1.34375 -6.078125 C 1.300781 -6.828125 1.285156 -7.515625 1.296875 -8.140625 C 1.316406 -8.773438 1.328125 -9.273438 1.328125 -9.640625 L 1.328125 -11.796875 C 1.328125 -12.960938 1.300781 -14.109375 1.25 -15.234375 C 1.207031 -16.367188 1.1875 -17.503906 1.1875 -18.640625 C 1.1875 -19.242188 1.191406 -20.019531 1.203125 -20.96875 C 1.222656 -21.925781 1.335938 -22.851562 1.546875 -23.75 C 1.765625 -24.65625 2.117188 -25.425781 2.609375 -26.0625 C 3.097656 -26.707031 3.820312 -27.03125 4.78125 -27.03125 C 5.207031 -27.03125 5.585938 -26.890625 5.921875 -26.609375 C 6.253906 -26.335938 6.550781 -26.003906 6.8125 -25.609375 C 7.070312 -25.210938 7.285156 -24.785156 7.453125 -24.328125 C 7.628906 -23.867188 7.757812 -23.472656 7.84375 -23.140625 C 8.15625 -23.566406 8.515625 -23.976562 8.921875 -24.375 C 9.335938 -24.769531 9.804688 -25.117188 10.328125 -25.421875 C 10.847656 -25.734375 11.425781 -25.976562 12.0625 -26.15625 C 12.707031 -26.34375 13.445312 -26.4375 14.28125 -26.4375 C 15.832031 -26.4375 17.046875 -26.0625 17.921875 -25.3125 C 18.796875 -24.5625 19.4375 -23.628906 19.84375 -22.515625 C 20.257812 -21.398438 20.515625 -20.195312 20.609375 -18.90625 C 20.703125 -17.625 20.75 -16.460938 20.75 -15.421875 C 20.75 -14.898438 20.703125 -14.125 20.609375 -13.09375 C 20.515625 -12.070312 20.367188 -10.941406 20.171875 -9.703125 C 19.972656 -8.460938 19.703125 -7.191406 19.359375 -5.890625 C 19.023438 -4.597656 18.628906 -3.414062 18.171875 -2.34375 C 17.710938 -1.269531 17.171875 -0.398438 16.546875 0.265625 C 15.921875 0.941406 15.207031 1.28125 14.40625 1.28125 Z M 14.40625 1.28125 "/></g></g></g><g fill="#000000" fill-opacity="1"><g transform="translate(220.183021, 207.049995)"><g><path d="M 21.15625 -30.203125 C 21.15625 -27.960938 21.070312 -25.738281 20.90625 -23.53125 C 20.738281 -21.332031 20.65625 -19.117188 20.65625 -16.890625 C 20.65625 -15.085938 20.707031 -13.296875 20.8125 -11.515625 C 20.914062 -9.742188 20.96875 -7.957031 20.96875 -6.15625 C 20.96875 -5.664062 20.953125 -5.070312 20.921875 -4.375 C 20.898438 -3.6875 20.800781 -3.019531 20.625 -2.375 C 20.457031 -1.738281 20.179688 -1.191406 19.796875 -0.734375 C 19.421875 -0.273438 18.878906 -0.046875 18.171875 -0.046875 C 17.253906 -0.046875 16.5 -0.390625 15.90625 -1.078125 C 15.3125 -1.765625 14.9375 -2.535156 14.78125 -3.390625 C 14.195312 -2.296875 13.351562 -1.363281 12.25 -0.59375 C 11.15625 0.164062 9.960938 0.546875 8.671875 0.546875 C 7.296875 0.546875 6.109375 0.0703125 5.109375 -0.875 C 4.117188 -1.820312 3.296875 -2.96875 2.640625 -4.3125 C 1.984375 -5.65625 1.492188 -7.0625 1.171875 -8.53125 C 0.847656 -10 0.6875 -11.269531 0.6875 -12.34375 C 0.6875 -13.113281 0.734375 -13.988281 0.828125 -14.96875 C 0.921875 -15.945312 1.082031 -16.941406 1.3125 -17.953125 C 1.539062 -18.960938 1.835938 -19.945312 2.203125 -20.90625 C 2.566406 -21.875 3.03125 -22.738281 3.59375 -23.5 C 4.164062 -24.257812 4.84375 -24.867188 5.625 -25.328125 C 6.40625 -25.796875 7.300781 -26.03125 8.3125 -26.03125 C 9.40625 -26.03125 10.457031 -25.707031 11.46875 -25.0625 C 12.476562 -24.414062 13.242188 -23.617188 13.765625 -22.671875 L 14.1875 -29.96875 C 14.21875 -30.550781 14.257812 -31.234375 14.3125 -32.015625 C 14.375 -32.796875 14.503906 -33.535156 14.703125 -34.234375 C 14.910156 -34.941406 15.226562 -35.539062 15.65625 -36.03125 C 16.082031 -36.519531 16.707031 -36.765625 17.53125 -36.765625 C 18.414062 -36.765625 19.101562 -36.550781 19.59375 -36.125 C 20.082031 -35.695312 20.441406 -35.148438 20.671875 -34.484375 C 20.898438 -33.828125 21.035156 -33.117188 21.078125 -32.359375 C 21.128906 -31.597656 21.15625 -30.878906 21.15625 -30.203125 Z M 13.671875 -9.828125 C 13.671875 -10.523438 13.65625 -11.207031 13.625 -11.875 C 13.601562 -12.550781 13.601562 -13.242188 13.625 -13.953125 C 13.445312 -14.347656 13.234375 -14.78125 12.984375 -15.25 C 12.742188 -15.726562 12.445312 -16.175781 12.09375 -16.59375 C 11.738281 -17.007812 11.347656 -17.351562 10.921875 -17.625 C 10.492188 -17.894531 10.035156 -18.03125 9.546875 -18.03125 C 8.992188 -18.03125 8.550781 -17.863281 8.21875 -17.53125 C 7.882812 -17.195312 7.640625 -16.789062 7.484375 -16.3125 C 7.328125 -15.84375 7.222656 -15.332031 7.171875 -14.78125 C 7.128906 -14.226562 7.109375 -13.753906 7.109375 -13.359375 C 7.109375 -12.992188 7.140625 -12.453125 7.203125 -11.734375 C 7.265625 -11.015625 7.378906 -10.285156 7.546875 -9.546875 C 7.710938 -8.816406 7.945312 -8.175781 8.25 -7.625 C 8.5625 -7.070312 8.976562 -6.796875 9.5 -6.796875 C 9.894531 -6.796875 10.289062 -6.878906 10.6875 -7.046875 C 11.09375 -7.210938 11.46875 -7.425781 11.8125 -7.6875 C 12.164062 -7.945312 12.503906 -8.238281 12.828125 -8.5625 C 13.148438 -8.882812 13.429688 -9.179688 13.671875 -9.453125 Z M 13.671875 -9.828125 "/></g></g></g><g fill="#000000" fill-opacity="1"><g transform="translate(242.990751, 207.049995)"><g><path d="M 20.609375 -8.171875 C 20.609375 -7.128906 20.28125 -6.109375 19.625 -5.109375 C 18.96875 -4.117188 18.140625 -3.234375 17.140625 -2.453125 C 16.148438 -1.671875 15.085938 -1.039062 13.953125 -0.5625 C 12.816406 -0.09375 11.773438 0.140625 10.828125 0.140625 C 9.210938 0.140625 7.769531 -0.265625 6.5 -1.078125 C 5.226562 -1.890625 4.160156 -2.921875 3.296875 -4.171875 C 2.441406 -5.429688 1.789062 -6.816406 1.34375 -8.328125 C 0.90625 -9.847656 0.6875 -11.328125 0.6875 -12.765625 C 0.6875 -14.296875 0.898438 -15.929688 1.328125 -17.671875 C 1.753906 -19.410156 2.40625 -21.015625 3.28125 -22.484375 C 4.15625 -23.953125 5.253906 -25.175781 6.578125 -26.15625 C 7.910156 -27.132812 9.5 -27.625 11.34375 -27.625 C 12.375 -27.625 13.363281 -27.445312 14.3125 -27.09375 C 15.269531 -26.75 16.097656 -26.253906 16.796875 -25.609375 C 17.503906 -24.960938 18.070312 -24.195312 18.5 -23.3125 C 18.925781 -22.425781 19.140625 -21.429688 19.140625 -20.328125 C 19.140625 -18.890625 18.832031 -17.539062 18.21875 -16.28125 C 17.601562 -15.03125 16.789062 -13.945312 15.78125 -13.03125 C 14.78125 -12.113281 13.617188 -11.367188 12.296875 -10.796875 C 10.984375 -10.234375 9.640625 -9.925781 8.265625 -9.875 C 8.390625 -8.976562 8.75 -8.332031 9.34375 -7.9375 C 9.9375 -7.539062 10.644531 -7.34375 11.46875 -7.34375 C 12.082031 -7.34375 12.679688 -7.492188 13.265625 -7.796875 C 13.847656 -8.109375 14.414062 -8.453125 14.96875 -8.828125 C 15.519531 -9.210938 16.0625 -9.554688 16.59375 -9.859375 C 17.125 -10.171875 17.664062 -10.328125 18.21875 -10.328125 C 18.832031 -10.328125 19.382812 -10.128906 19.875 -9.734375 C 20.363281 -9.335938 20.609375 -8.816406 20.609375 -8.171875 Z M 13.171875 -19.421875 C 13.171875 -19.816406 13.0625 -20.226562 12.84375 -20.65625 C 12.632812 -21.082031 12.300781 -21.296875 11.84375 -21.296875 C 11.164062 -21.296875 10.597656 -21.117188 10.140625 -20.765625 C 9.679688 -20.410156 9.296875 -19.96875 8.984375 -19.4375 C 8.679688 -18.90625 8.445312 -18.332031 8.28125 -17.71875 C 8.113281 -17.101562 8.015625 -16.535156 7.984375 -16.015625 C 8.410156 -16.109375 8.921875 -16.226562 9.515625 -16.375 C 10.117188 -16.53125 10.6875 -16.738281 11.21875 -17 C 11.757812 -17.257812 12.21875 -17.585938 12.59375 -17.984375 C 12.976562 -18.390625 13.171875 -18.867188 13.171875 -19.421875 Z M 13.171875 -19.421875 "/></g></g></g><g fill="#000000" fill-opacity="1"><g transform="translate(264.054631, 207.049995)"><g><path d="M 17.296875 -17.171875 C 16.867188 -17.140625 16.503906 -17.175781 16.203125 -17.28125 C 15.898438 -17.382812 15.59375 -17.5 15.28125 -17.625 C 15.007812 -17.75 14.734375 -17.863281 14.453125 -17.96875 C 14.179688 -18.070312 13.878906 -18.109375 13.546875 -18.078125 C 12.929688 -18.046875 12.382812 -17.878906 11.90625 -17.578125 C 11.4375 -17.273438 11.007812 -16.894531 10.625 -16.4375 C 10.238281 -15.976562 9.90625 -15.460938 9.625 -14.890625 C 9.351562 -14.328125 9.144531 -13.769531 9 -13.21875 C 8.90625 -12.851562 8.832031 -12.296875 8.78125 -11.546875 C 8.738281 -10.796875 8.71875 -9.992188 8.71875 -9.140625 C 8.6875 -8.242188 8.671875 -7.398438 8.671875 -6.609375 C 8.671875 -5.816406 8.640625 -5.191406 8.578125 -4.734375 C 8.546875 -4.242188 8.46875 -3.664062 8.34375 -3 C 8.226562 -2.34375 8.039062 -1.722656 7.78125 -1.140625 C 7.519531 -0.566406 7.175781 -0.0820312 6.75 0.3125 C 6.320312 0.71875 5.769531 0.921875 5.09375 0.921875 C 4.570312 0.921875 4.117188 0.765625 3.734375 0.453125 C 3.359375 0.148438 3.039062 -0.25 2.78125 -0.75 C 2.519531 -1.257812 2.300781 -1.847656 2.125 -2.515625 C 1.957031 -3.191406 1.832031 -3.882812 1.75 -4.59375 C 1.65625 -5.320312 1.582031 -6.050781 1.53125 -6.78125 C 1.488281 -7.519531 1.457031 -8.21875 1.4375 -8.875 C 1.425781 -9.539062 1.425781 -10.144531 1.4375 -10.6875 C 1.457031 -11.238281 1.46875 -11.6875 1.46875 -12.03125 C 1.4375 -13.09375 1.378906 -14.164062 1.296875 -15.25 C 1.222656 -16.34375 1.1875 -17.425781 1.1875 -18.5 C 1.1875 -19.164062 1.21875 -19.910156 1.28125 -20.734375 C 1.34375 -21.566406 1.507812 -22.34375 1.78125 -23.0625 C 2.0625 -23.78125 2.46875 -24.382812 3 -24.875 C 3.539062 -25.363281 4.285156 -25.609375 5.234375 -25.609375 C 5.753906 -25.609375 6.195312 -25.441406 6.5625 -25.109375 C 6.925781 -24.773438 7.222656 -24.363281 7.453125 -23.875 C 7.679688 -23.382812 7.859375 -22.863281 7.984375 -22.3125 C 8.109375 -21.757812 8.1875 -21.253906 8.21875 -20.796875 C 8.945312 -21.984375 9.769531 -22.953125 10.6875 -23.703125 C 11.613281 -24.453125 12.8125 -24.859375 14.28125 -24.921875 C 15.007812 -24.953125 15.734375 -24.882812 16.453125 -24.71875 C 17.171875 -24.550781 17.828125 -24.273438 18.421875 -23.890625 C 19.023438 -23.503906 19.515625 -23.003906 19.890625 -22.390625 C 20.273438 -21.785156 20.484375 -21.066406 20.515625 -20.234375 C 20.578125 -19.253906 20.285156 -18.503906 19.640625 -17.984375 C 19.003906 -17.472656 18.222656 -17.203125 17.296875 -17.171875 Z M 17.296875 -17.171875 "/></g></g></g></svg>