<svg xmlns="http://www.w3.org/2000/svg" xmlns:xlink="http://www.w3.org/1999/xlink" width="500" zoomAndPan="magnify" viewBox="0 0 375 374.999991" height="500" preserveAspectRatio="xMidYMid meet" version="1.0"><defs><g/></defs><g fill="#000000" fill-opacity="1"><g transform="translate(96.996196, 193.269772)"><g><path d="M 0.296875 -24.0625 L 0.296875 -30.078125 L 21.4375 -30.078125 L 21.4375 -24.0625 L 14.296875 -24.0625 L 14.296875 0 L 7.4375 0 L 7.4375 -24.0625 Z M 0.296875 -24.0625 "/></g></g></g><g fill="#000000" fill-opacity="1"><g transform="translate(115.619013, 193.269772)"><g><path d="M 3.46875 -2.3125 C 1.71875 -4.21875 0.84375 -6.554688 0.84375 -9.328125 C 0.84375 -12.097656 1.71875 -14.441406 3.46875 -16.359375 C 5.21875 -18.285156 7.441406 -19.25 10.140625 -19.25 C 12.617188 -19.25 14.660156 -18.472656 16.265625 -16.921875 L 16.265625 -18.703125 L 22.703125 -18.703125 L 22.703125 0 L 16.328125 0 L 16.328125 -2.109375 L 16.265625 -2.109375 C 14.660156 -0.335938 12.617188 0.546875 10.140625 0.546875 C 7.441406 0.546875 5.21875 -0.40625 3.46875 -2.3125 Z M 8.9375 -12.5 C 8.101562 -11.675781 7.6875 -10.617188 7.6875 -9.328125 C 7.6875 -8.046875 8.085938 -6.992188 8.890625 -6.171875 C 9.691406 -5.359375 10.75 -4.953125 12.0625 -4.953125 C 13.332031 -4.953125 14.375 -5.363281 15.1875 -6.1875 C 16 -7.019531 16.40625 -8.066406 16.40625 -9.328125 C 16.40625 -10.617188 15.984375 -11.675781 15.140625 -12.5 C 14.304688 -13.332031 13.28125 -13.75 12.0625 -13.75 C 10.820312 -13.75 9.78125 -13.332031 8.9375 -12.5 Z M 8.9375 -12.5 "/></g></g></g><g fill="#000000" fill-opacity="1"><g transform="translate(137.412576, 193.269772)"><g><path d="M 10.3125 -19.25 C 11.382812 -19.25 12.441406 -19.125 13.484375 -18.875 C 14.535156 -18.632812 15.316406 -18.394531 15.828125 -18.15625 L 16.59375 -17.796875 L 14.46875 -13.5625 C 13.007812 -14.34375 11.625 -14.734375 10.3125 -14.734375 C 9.582031 -14.734375 9.066406 -14.648438 8.765625 -14.484375 C 8.460938 -14.328125 8.3125 -14.03125 8.3125 -13.59375 C 8.3125 -13.5 8.320312 -13.398438 8.34375 -13.296875 C 8.375 -13.203125 8.425781 -13.113281 8.5 -13.03125 C 8.570312 -12.945312 8.632812 -12.875 8.6875 -12.8125 C 8.75 -12.75 8.851562 -12.679688 9 -12.609375 C 9.144531 -12.535156 9.257812 -12.476562 9.34375 -12.4375 C 9.4375 -12.40625 9.578125 -12.351562 9.765625 -12.28125 C 9.960938 -12.207031 10.109375 -12.148438 10.203125 -12.109375 C 10.304688 -12.078125 10.472656 -12.023438 10.703125 -11.953125 C 10.929688 -11.878906 11.109375 -11.832031 11.234375 -11.8125 C 11.984375 -11.59375 12.632812 -11.347656 13.1875 -11.078125 C 13.75 -10.816406 14.335938 -10.453125 14.953125 -9.984375 C 15.578125 -9.523438 16.0625 -8.941406 16.40625 -8.234375 C 16.75 -7.535156 16.921875 -6.734375 16.921875 -5.828125 C 16.921875 -1.578125 13.96875 0.546875 8.0625 0.546875 C 6.71875 0.546875 5.441406 0.34375 4.234375 -0.0625 C 3.035156 -0.476562 2.171875 -0.894531 1.640625 -1.3125 L 0.84375 -1.96875 L 3.46875 -6.375 C 3.65625 -6.207031 3.90625 -6.007812 4.21875 -5.78125 C 4.539062 -5.550781 5.113281 -5.234375 5.9375 -4.828125 C 6.769531 -4.429688 7.488281 -4.234375 8.09375 -4.234375 C 9.425781 -4.234375 10.09375 -4.679688 10.09375 -5.578125 C 10.09375 -5.992188 9.921875 -6.316406 9.578125 -6.546875 C 9.242188 -6.773438 8.671875 -7.035156 7.859375 -7.328125 C 7.046875 -7.617188 6.40625 -7.882812 5.9375 -8.125 C 4.769531 -8.738281 3.847656 -9.425781 3.171875 -10.1875 C 2.492188 -10.957031 2.15625 -11.972656 2.15625 -13.234375 C 2.15625 -15.128906 2.890625 -16.601562 4.359375 -17.65625 C 5.828125 -18.71875 7.8125 -19.25 10.3125 -19.25 Z M 10.3125 -19.25 "/></g></g></g><g fill="#000000" fill-opacity="1"><g transform="translate(152.245074, 193.269772)"><g><path d="M 23.546875 -18.703125 L 14.65625 -9.765625 L 24.421875 0 L 16.109375 0 L 8.640625 -7.46875 L 8.640625 0 L 2.1875 0 L 2.1875 -31.34375 L 8.640625 -31.34375 L 8.640625 -12.171875 L 15.171875 -18.703125 Z M 23.546875 -18.703125 "/></g></g></g><g fill="#000000" fill-opacity="1"><g transform="translate(172.69016, 193.269772)"><g><path d="M 19.578125 -30.078125 L 19.578125 -24.0625 L 9.046875 -24.0625 L 9.046875 -18.078125 L 18.765625 -18.078125 L 18.765625 -12.0625 L 9.046875 -12.0625 L 9.046875 0 L 2.1875 0 L 2.1875 -30.078125 Z M 19.578125 -30.078125 "/></g></g></g><g fill="#000000" fill-opacity="1"><g transform="translate(190.256062, 193.269772)"><g><path d="M 2.796875 -29.125 C 3.554688 -29.875 4.457031 -30.25 5.5 -30.25 C 6.550781 -30.25 7.453125 -29.875 8.203125 -29.125 C 8.953125 -28.375 9.328125 -27.472656 9.328125 -26.421875 C 9.328125 -25.378906 8.953125 -24.476562 8.203125 -23.71875 C 7.453125 -22.96875 6.550781 -22.59375 5.5 -22.59375 C 4.457031 -22.59375 3.554688 -22.96875 2.796875 -23.71875 C 2.046875 -24.476562 1.671875 -25.378906 1.671875 -26.421875 C 1.671875 -27.472656 2.046875 -28.375 2.796875 -29.125 Z M 2.1875 -18.703125 L 2.1875 0 L 8.640625 0 L 8.640625 -18.703125 Z M 2.1875 -18.703125 "/></g></g></g><g fill="#000000" fill-opacity="1"><g transform="translate(198.163952, 193.269772)"><g><path d="M 2.1875 0 L 2.1875 -18.703125 L 8.640625 -18.703125 L 8.640625 -16.734375 L 8.71875 -16.734375 C 10.394531 -18.410156 12.179688 -19.25 14.078125 -19.25 C 14.992188 -19.25 15.90625 -19.125 16.8125 -18.875 C 17.726562 -18.632812 18.601562 -18.257812 19.4375 -17.75 C 20.28125 -17.238281 20.960938 -16.515625 21.484375 -15.578125 C 22.003906 -14.648438 22.265625 -13.566406 22.265625 -12.328125 L 22.265625 0 L 15.828125 0 L 15.828125 -10.578125 C 15.828125 -11.546875 15.515625 -12.394531 14.890625 -13.125 C 14.273438 -13.851562 13.46875 -14.21875 12.46875 -14.21875 C 11.5 -14.21875 10.617188 -13.835938 9.828125 -13.078125 C 9.035156 -12.328125 8.640625 -11.492188 8.640625 -10.578125 L 8.640625 0 Z M 2.1875 0 "/></g></g></g><g fill="#000000" fill-opacity="1"><g transform="translate(219.155711, 193.269772)"><g><path d="M 3.46875 -2.3125 C 1.71875 -4.21875 0.84375 -6.554688 0.84375 -9.328125 C 0.84375 -12.097656 1.71875 -14.441406 3.46875 -16.359375 C 5.21875 -18.285156 7.441406 -19.25 10.140625 -19.25 C 12.617188 -19.25 14.660156 -18.472656 16.265625 -16.921875 L 16.265625 -31.34375 L 22.703125 -31.34375 L 22.703125 0 L 16.328125 0 L 16.328125 -2.109375 L 16.265625 -2.109375 C 14.660156 -0.335938 12.617188 0.546875 10.140625 0.546875 C 7.441406 0.546875 5.21875 -0.40625 3.46875 -2.3125 Z M 8.9375 -12.5 C 8.101562 -11.675781 7.6875 -10.617188 7.6875 -9.328125 C 7.6875 -8.046875 8.085938 -6.992188 8.890625 -6.171875 C 9.691406 -5.359375 10.75 -4.953125 12.0625 -4.953125 C 13.332031 -4.953125 14.375 -5.363281 15.1875 -6.1875 C 16 -7.019531 16.40625 -8.066406 16.40625 -9.328125 C 16.40625 -10.617188 15.984375 -11.675781 15.140625 -12.5 C 14.304688 -13.332031 13.28125 -13.75 12.0625 -13.75 C 10.820312 -13.75 9.78125 -13.332031 8.9375 -12.5 Z M 8.9375 -12.5 "/></g></g></g><g fill="#000000" fill-opacity="1"><g transform="translate(240.949277, 193.269772)"><g><path d="M 21.109375 -8.453125 L 7.546875 -8.453125 C 7.546875 -7.140625 7.96875 -6.164062 8.8125 -5.53125 C 9.664062 -4.90625 10.59375 -4.59375 11.59375 -4.59375 C 12.632812 -4.59375 13.457031 -4.734375 14.0625 -5.015625 C 14.675781 -5.296875 15.375 -5.847656 16.15625 -6.671875 L 20.8125 -4.34375 C 18.863281 -1.082031 15.632812 0.546875 11.125 0.546875 C 8.300781 0.546875 5.878906 -0.414062 3.859375 -2.34375 C 1.847656 -4.28125 0.84375 -6.609375 0.84375 -9.328125 C 0.84375 -12.054688 1.847656 -14.390625 3.859375 -16.328125 C 5.878906 -18.273438 8.300781 -19.25 11.125 -19.25 C 14.082031 -19.25 16.488281 -18.390625 18.34375 -16.671875 C 20.207031 -14.960938 21.140625 -12.515625 21.140625 -9.328125 C 21.140625 -8.890625 21.128906 -8.597656 21.109375 -8.453125 Z M 7.734375 -12.03125 L 14.84375 -12.03125 C 14.695312 -13 14.3125 -13.742188 13.6875 -14.265625 C 13.070312 -14.796875 12.273438 -15.0625 11.296875 -15.0625 C 10.234375 -15.0625 9.382812 -14.78125 8.75 -14.21875 C 8.113281 -13.65625 7.773438 -12.925781 7.734375 -12.03125 Z M 7.734375 -12.03125 "/></g></g></g><g fill="#000000" fill-opacity="1"><g transform="translate(259.827209, 193.269772)"><g><path d="M 2.1875 0 L 2.1875 -18.703125 L 8.640625 -18.703125 L 8.640625 -16 L 8.71875 -16 C 8.757812 -16.101562 8.832031 -16.226562 8.9375 -16.375 C 9.050781 -16.519531 9.289062 -16.773438 9.65625 -17.140625 C 10.019531 -17.503906 10.410156 -17.828125 10.828125 -18.109375 C 11.242188 -18.398438 11.78125 -18.660156 12.4375 -18.890625 C 13.09375 -19.128906 13.757812 -19.25 14.4375 -19.25 C 15.144531 -19.25 15.835938 -19.148438 16.515625 -18.953125 C 17.191406 -18.753906 17.6875 -18.5625 18 -18.375 L 18.515625 -18.078125 L 15.828125 -12.609375 C 15.023438 -13.296875 13.90625 -13.640625 12.46875 -13.640625 C 11.6875 -13.640625 11.015625 -13.46875 10.453125 -13.125 C 9.898438 -12.78125 9.507812 -12.363281 9.28125 -11.875 C 9.050781 -11.394531 8.882812 -10.984375 8.78125 -10.640625 C 8.6875 -10.304688 8.640625 -10.039062 8.640625 -9.84375 L 8.640625 0 Z M 2.1875 0 "/></g></g></g><path stroke-linecap="butt" transform="matrix(0.75, 0, 0, 0.75, 90.574247, 228.073111)" fill="none" stroke-linejoin="miter" d="M -0.0000370697 5.001478 L 84.43226 5.001478 " stroke="#292929" stroke-width="10" stroke-opacity="1" stroke-miterlimit="4"/><path stroke-linecap="butt" transform="matrix(0, 0.75, -0.75, 0, 98.070394, 171.479461)" fill="none" stroke-linejoin="miter" d="M 0.00134401 5.000109 L 82.464891 5.000109 " stroke="#292929" stroke-width="10" stroke-opacity="1" stroke-miterlimit="4"/><path stroke-linecap="butt" transform="matrix(-0.75, 0, 0, -0.75, 283.487477, 146.919132)" fill="none" stroke-linejoin="miter" d="M -0.00107222 5.001551 L 84.431225 5.001551 " stroke="#292929" stroke-width="10" stroke-opacity="1" stroke-miterlimit="4"/><path stroke-linecap="butt" transform="matrix(0, -0.75, 0.75, 0, 275.991344, 203.512837)" fill="none" stroke-linejoin="miter" d="M 0.00149105 5.001125 L 82.465038 5.001125 " stroke="#292929" stroke-width="10" stroke-opacity="1" stroke-miterlimit="4"/></svg>